<svg height="23" viewBox="0 0 105 23" width="105" xmlns="http://www.w3.org/2000/svg"><g fill="none"><path d="m36.896 7.544c-.5013358-.73600368-1.2319952-1.104-2.192-1.104-.2986682 0-.5919986.0399996-.88.12s-.5466655.20266584-.776.368-.4133326.37866536-.552.64-.208.56799824-.208.92c0 .51200256.1439986.90933192.432 1.192s.6453312.5146658 1.072.696.8933308.3439993 1.4.488.9733312.3359988 1.4.576.7839986.5573314 1.072.952.432.9333299.432 1.616c0 .5120026-.1093322.9733313-.328 1.384s-.5066649.7546653-.864 1.032-.7573311.4906659-1.2.64-.8879978.224-1.336.224c-.6933368 0-1.3519969-.1306654-1.976-.392s-1.1546645-.6906637-1.592-1.288l1.04-.752c.2453346.4160021.5866645.7493321 1.024 1s.9546637.376 1.552.376c.2880014 0 .5759986-.0453329.864-.136s.5466655-.2239991.776-.4.4186659-.3919987.568-.648.224-.5493317.224-.88c0-.3946686-.0826658-.7226654-.248-.984s-.3839986-.4799991-.656-.656-.5813316-.3226661-.928-.44-.7039982-.2346661-1.072-.352-.7253316-.2506659-1.072-.4-.6559986-.3386655-.928-.568-.4906658-.5173316-.656-.864-.248-.78133072-.248-1.304c0-.54400272.103999-1.01866464.312-1.424s.4853316-.741332.832-1.008.7386645-.46399936 1.176-.592.885331-.192 1.344-.192c.6400032 0 1.2213307.10133232 1.744.304s1.0079978.55999744 1.456 1.072zm4.448 9.456h-1.056v-12.096h1.056zm4.08-10.368c0 .22400112-.0799992.40799928-.24.552s-.335999.216-.528.216-.3679992-.07199928-.528-.216-.24-.32799888-.24-.552.0799992-.40799928.24-.552.335999-.216.528-.216.3679992.07199928.528.216.24.32799888.24.552zm-.24 10.368h-1.056v-7.488h1.056zm10.016 0h-1.056v-1.248h-.032c-.1706675.2560013-.3733322.4746658-.608.656s-.4799987.3306661-.736.448-.5199986.2026664-.792.256-.5306654.08-.776.08c-.5866696 0-1.1226642-.0986657-1.608-.296s-.9039982-.4719982-1.256-.824-.6266657-.7679976-.824-1.248-.296-1.0026638-.296-1.568.0986657-1.0879976.296-1.568.4719982-.8959982.824-1.248.7706642-.62666568 1.256-.824 1.0213304-.296 1.608-.296c.2453346 0 .5039986.0266664.776.08s.5359987.13866608.792.256.5013322.26666576.736.448c.2346678.1813342.4373325.3999987.608.656h.032v-5.856h1.056zm-6.832-3.744c0 .4160021.066666.8053315.2 1.168s.3226654.677332.568.944.5413316.4773326.888.632.7386645.232 1.176.232c.4266688 0 .8239982-.0773326 1.192-.232s.685332-.365332.952-.632.4746659-.5813315.624-.944.224-.7519979.224-1.168-.0746659-.8053315-.224-1.168-.357332-.677332-.624-.944-.5839982-.4773326-.952-.632-.7653312-.232-1.192-.232c-.4373355 0-.8293316.0773326-1.176.232s-.6426654.365332-.888.632-.434666.5813315-.568.944-.2.7519979-.2 1.168zm9.872.288c.0320002.3733352.1226659.7253317.272 1.056s.3466654.6159988.592.856.5279984.4293326.848.568.6666648.208 1.04.208c.5653362 0 1.0533313-.1306654 1.464-.392s.7226656-.562665.936-.904l.816.672c-.4480022.5653362-.9413306.9706654-1.48 1.216s-1.1173302.368-1.736.368c-.5546694 0-1.069331-.0986657-1.544-.296s-.882665-.4719982-1.224-.824-.6106657-.7679976-.808-1.248-.296-1.0026638-.296-1.568.095999-1.0879976.288-1.568.458665-.8959982.8-1.248.741331-.62666568 1.2-.824.954664-.296 1.488-.296c.5653362 0 1.0719978.10133232 1.52.304s.8239985.4719983 1.128.808.5359992.7306644.696 1.184.24.9359974.24 1.448v.48zm5.088-.864c0-.7146702-.2133312-1.2933311-.64-1.736s-1.0239962-.664-1.792-.664c-.341335 0-.6719984.066666-.992.2s-.5999988.3119989-.84.536-.4319993.4799986-.576.768-.216.5866651-.216.896zm8.816-5.136c-.5013358-.73600368-1.2319952-1.104-2.192-1.104-.2986682 0-.5919986.0399996-.88.12s-.5466655.20266584-.776.368-.4133326.37866536-.552.64-.208.56799824-.208.92c0 .51200256.1439986.90933192.432 1.192s.6453312.5146658 1.072.696.8933308.3439993 1.4.488.9733312.3359988 1.4.576.7839986.5573314 1.072.952.432.9333299.432 1.616c0 .5120026-.1093322.9733313-.328 1.384s-.5066649.7546653-.864 1.032-.7573311.4906659-1.2.64-.8879978.224-1.336.224c-.6933368 0-1.3519969-.1306654-1.976-.392s-1.1546645-.6906637-1.592-1.288l1.04-.752c.2453346.4160021.5866645.7493321 1.024 1s.9546637.376 1.552.376c.2880014 0 .5759986-.0453329.864-.136s.5466655-.2239991.776-.4.4186659-.3919987.568-.648.224-.5493317.224-.88c0-.3946686-.0826658-.7226654-.248-.984s-.3839986-.4799991-.656-.656-.5813316-.3226661-.928-.44-.7039982-.2346661-1.072-.352-.7253316-.2506659-1.072-.4-.6559986-.3386655-.928-.568-.4906658-.5173316-.656-.864-.248-.78133072-.248-1.304c0-.54400272.103999-1.01866464.312-1.424s.4853316-.741332.832-1.008.7386645-.46399936 1.176-.592.885331-.192 1.344-.192c.6400032 0 1.2213307.10133232 1.744.304s1.0079978.55999744 1.456 1.072zm3.152-2.64h1.056v5.808h.032c.1173339-.2026677.2666658-.3893325.448-.56.1813342-.17066752.3839989-.31733272.608-.44s.4613321-.21866632.712-.288.4986654-.104.744-.104c.9600048 0 1.669331.2533308 2.128.76s.688 1.2293286.688 2.168v4.752h-1.056v-4.144c0-.8320042-.1439986-1.4693311-.432-1.912s-.8213294-.664-1.6-.664c-.0533336 0-.2026654.0213331-.448.064s-.5039986.159999-.776.352-.5146656.4799981-.728.864-.32.9173299-.32 1.6v3.84h-1.056zm13.696 7.504v-.192c0-1.2906731-.6399936-1.936-1.92-1.936-.874671 0-1.6373301.2933304-2.288.88l-.64-.752c.7040035-.72533696 1.759993-1.088 3.168-1.088.3626685 0 .7119983.0533328 1.048.16s.6266654.26933224.872.488c.2453346.2186678.4426659.4933317.592.824s.224.725331.224 1.184v3.344c0 .2880014.0133332.5893318.04.904s.0559998.5733323.088.776h-1.024c-.0320002-.1813342-.0559999-.3786656-.072-.592s-.024-.4213323-.024-.624h-.032c-.3093349.5013358-.6746646.8613322-1.096 1.08s-.935997.328-1.544.328c-.3306683 0-.6506651-.0453329-.96-.136s-.5839988-.2293324-.824-.416-.4319993-.4159986-.576-.688-.216-.5893315-.216-.952c0-.608003.1573318-1.0853316.472-1.432s.709331-.6053325 1.184-.776.9813306-.2773331 1.52-.32 1.0319978-.064 1.48-.064zm-.544.864c-.266668 0-.599998.0133332-1 .04s-.7839982.0906662-1.152.192-.6826654.2586656-.944.472-.392.5066648-.392.88c0 .2453346.0506662.4559991.152.632s.2373325.3199994.408.432.359999.1919998.568.24.4186656.072.632.072c.3840019 0 .7173319-.0639994 1-.192s.519999-.3013322.712-.52.3333329-.4746652.424-.768.136-.6053317.136-.936v-.544zm4.16-1.424c0-.3306683-.0079999-.666665-.024-1.008s-.0293333-.7839973-.04-1.328h1.04v1.392h.032c.074667-.2026677.1813326-.3973324.32-.584s.3066657-.35466592.504-.504.4266654-.26933288.688-.36.5573317-.136.888-.136c.2986682 0 .5599989.03199968.784.096l-.208 1.04c-.1386674-.0533336-.341332-.08-.608-.08-.4053354 0-.7519986.0773326-1.04.232s-.527999.3519988-.72.592-.3333329.4986653-.424.776-.136.5439987-.136.8v4.224h-1.056zm5.936 1.696c.0320002.3733352.1226659.7253317.272 1.056s.3466654.6159988.592.856.5279984.4293326.848.568c.320002.1386674.666665.208 1.04.208.565336 0 1.053331-.1306654 1.464-.392s.722666-.562665.936-.904l.816.672c-.448002.5653362-.941331.9706654-1.48 1.216s-1.11733.368-1.736.368c-.554669 0-1.069331-.0986657-1.544-.296s-.882665-.4719982-1.224-.824-.6106657-.7679976-.808-1.248-.296-1.0026638-.296-1.568.095999-1.0879976.288-1.568.458665-.8959982.8-1.248.741331-.62666568 1.2-.824.954664-.296 1.488-.296c.565336 0 1.071998.10133232 1.52.304s.823998.4719983 1.128.808.535999.7306644.696 1.184.24.9359974.24 1.448v.48zm5.088-.864c0-.7146702-.213331-1.2933311-.64-1.736s-1.023996-.664-1.792-.664c-.341335 0-.671998.066666-.992.2-.3200016.133334-.5999988.3119989-.84.536s-.4319993.4799986-.576.768-.216.5866651-.216.896z" fill="#4c4c4c"/><path d="m20.1506997 0c.8879703 0 1.6097106.73316667 1.6097106 1.63795238v19.43711902c0 .9047857-.7217403 1.6392143-1.6097106 1.6392143h-18.54522039c-.8855524 0-1.60547931-.7344286-1.60547931-1.6392143v-19.43711902c0-.90478571.71992691-1.63795238 1.60547931-1.63795238zm-15.31008286 3.127c-1.03667056 0-1.87205174.87513095-1.87205174 1.95342857 0 1.07892857.83538118 1.95405953 1.87205174 1.95405953 1.03243926 0 1.8708428-.87513096 1.8708428-1.95405953 0-1.07829762-.83840354-1.95342857-1.8708428-1.95342857zm-1.61575535 16.2280952h3.23030175v-10.83976187h-3.23030175zm5.25528507-10.83976187v10.83976187h3.22365254v-5.3612023c0-1.4145953.2562964-2.7843929 1.9355214-2.7843929 1.656255 0 1.6774115 1.617131 1.6774115 2.8739881v5.2716071h3.2266749v-5.9448333c0-2.9194167-.6038681-5.16371428-3.8710427-5.16371428-1.5704199 0-2.6240157.89847619-3.0544002 1.75089286h-.0441265v-1.48210715z" fill="#0077b5"/></g></svg>