<svg height="22" viewBox="0 0 75 22" width="75" xmlns="http://www.w3.org/2000/svg"><path d="m17.6862905 3.42599636c-1.0558303 0-2.1123403.01857899-3.1674909-.00725034-.5723235-.0142741-.9574976.08496489-.9287228.78258324.0224307.54989274-.033986 1.07146385.7780517 1.06194778 1.0694247-.01246152 1.4294493.6459597 1.4262772 1.62135658-.00793 2.5645801.0099693 5.12916018-.0074769 7.69374028-.00793 1.1947196-.2274793 1.4627555-1.4310352 1.535712-.7189162.043502-.7517693.4200664-.7671763.9597633-.0174461.6083486.1876025.9044796.8371874.8960964 2.1866562-.0280951 4.3739922-.0382909 6.5606485-.0328531.7107596.001586.7669497-.4289028.7628714-.9701857-.0036252-.5016327-.0645733-.8346951-.7177833-.8827285-1.2685824-.092895-1.4677401-.3423519-1.4747639-1.6079888-.0135944-2.4891313-.0122349-4.97826258-.0013594-7.46739386.0058909-1.33451513.176727-1.58193287 1.4906239-1.76726961.8154364-.1150991.6733751-.64165481.6964855-1.15597559.0296811-.66317925-.3867601-.69761835-.8890725-.68923515-1.0556038.01744613-2.1114341.00543776-3.1672644.00543776zm23.5635949 6.91138364c0 1.8119045.0027188 3.6235824-.0011329 5.4352603-.0018126.8802363-.3203743 1.5561036-1.2513628 1.7706683-.2444723.0564166-.5120551.0131412-.7692155.0156335.0740894-.2215884.1166852-.4601698.2274794-.6613667.6987512-1.2681292.4617558-2.4130027-.6149192-2.8953767-1.0963869-.4912103-2.3287176.0856446-2.8317097 1.3254522-.7628714 1.8810093.4506537 3.7685892 2.7027896 4.2047423 3.7151179.7195959 6.6311128-1.6077622 6.6943267-5.4101108.0505258-3.0566967.0029454-6.11475285.0197118-9.17212928.0074769-1.3617039.2274794-1.68706277 1.5375246-1.92065956.9167145-.16358572.6160521-.78824756.646866-1.29305226.038744-.63372476-.420293-.60948145-.8507817-.56439341-2.4009944.25126948-4.7983636.54286897-7.2036629.74723784-.9534193.08088657-.9309885.64641285-.898362 1.32024103.0407831.84149222.6122003.55419762 1.0669324.51885223 1.1713825-.09130893 1.5121484.19281365 1.5259693 1.3700871.0199384 1.73622911.0049846 3.47268479.0049846 5.20891391zm11.315057-2.96108291c.3387266-1.03815761.5940744-2.10350398.8863536-3.15661541.0394237-.1436473.0826992-.28638831.1241621-.42935589.0894963.14636618.2154709.28208342.2625981.44091111.2462849.83084329.4714985 1.66803063.7071344 2.50227252.4542789 1.60617619.4549587 1.60594961-1.2826299 1.67641382-.9466221.24243314-.957271-.23699538-.6976183-1.03362615zm3.7975905 7.13070631c1.4303555-.0706908 2.863883-.1062627 4.2878945-.2431128.277552-.0267357.7032827-.4286762.7284323-.6896883.0335328-.3468833-.2120724-1.0073437-.4191601-1.0417828-.8836348-.1463662-1.1552959-.7529022-1.394557-1.4500674-1.0023591-2.92188576-2.0051713-5.84354495-3.0093429-8.76497756-.7166505-2.08515157-.7157442-2.02080483-2.9314019-1.93674624-.9846863.03738455-1.3472032.44385656-1.6168251 1.31638929-1.0107423 3.27511311-2.0955739 6.52779549-3.1559357 9.78750161-.3366875 1.0340793-.7988965 1.9197533-1.9682399 2.3001694-.2591995.0845117-.4107769.7581133-.4361531 1.1713826-.009516.1540696.5007264.5075235.7451987.4830536 1.7233145-.1731017 3.4454961-.384721 5.1500049-.6860631.2442458-.0430489.4789754-.6167318.5607683-.9803815.0978795-.4356999-.0346657-.8043342-.6577415-.7583399-.845344.0627607-1.0132346-.4796551-.9040264-1.182258.2107129-1.3503753.4155349-1.5259694 1.8003493-1.6111608.4137223-.0251497.8392265-.0226574 1.2352761-.1255215.9815144-.25512123 1.2361825.339633 1.433301 1.0991058.1932668.7454252.176727 1.3936506-.7087204 1.6045901-.791193.1885088-.64528.7966308-.5249697 1.2459251.0629873.2347297.5580493.4039797.8877131.5014061.2773254.0817929.5979262.0167664.8992683.0167664-.0004531-.018579-.0006797-.0373845-.0011328-.0561901zm11.1104615-11.21604456c.0058909-1.46909951.1286935-1.5658462 1.534126-1.21148598 1.1852035.29862325 1.7643241 1.28444249 1.5950741 2.71547773-.1542962 1.30256834-.888846 1.97118534-2.1272942 2.02443-.7035092.03013422-1.0605883-.18261786-1.0064374-.94050463.0373846-.52225083.0070238-1.04993941.0070238-1.57490912-.0027189-.33759381-.0038517-.67518762-.0024923-1.013008zm.0061175 6.78450276c.1180445-.53901726.0956138-1.32839769.4356999-1.55225184.6665779-.43887196 2.1698899.18465702 2.5754556.90176065.5208914.92033959.5537445 1.87783729-.0074769 2.79296569-.5902227.9627088-1.5610882.7721609-2.4460824.6656716-.207994-.0249231-.4882649-.4116832-.529048-.6652184-.0829257-.5143208-.0246965-1.0512989-.0246965-1.5789875h-.0101958c0-.1885087-.0330796-.3842678.0063441-.5639402zm-4.2561743-10.05667042c-.4336608.04961949-1.0605884-.26055899-1.1201771.54422841-.0455412.61627863-.0813397 1.15053783.7898336 1.34131232.3745252.08201944.8863537.70532183.8965495 1.09457429.0749956 2.82400622.0681984 5.65186417-.0040784 8.476097-.0088363.3407658-.5349389.912183-.8727593.9527395-.8285775.1001453-.8283509.5600886-.8274447 1.1682106.0011329.7404406.4973278.7066812 1.0009997.7347763 2.2568939.1259746 4.5119752.2891072 6.770002.3808693.8201944.0330796 1.6596475-.0246965 2.4676069-.1678907 1.2176034-.2159241 2.1966255-.8231398 2.5428291-2.1103011.3518679-1.3073264.026509-2.47893553-.9096907-3.43348769-.3863071-.39378392-.9115033-.65207717-1.377564-.96633396-.1515774-.10218444-.3149366-.18646961-.4730845-.27913797.1586011-.12778719.2986232-.29817011.4787488-.37701752 2.7005239-1.18089862 2.2118059-4.51650673.4880383-5.66070052-.9373326-.62216953-2.0917222-1.0759953-3.2026098-1.24207333-1.9677867-.29409179-3.9772629-.3108582-6.219203-.46039639.0235636 0-.204822-.02084472-.4279964.00453146zm-34.9196616 5.76515068c.0618544-.50299212-.2721142-1.17002312.5732298-1.37439199.9429969-.22838561 1.934707.05347124 2.3196546.70962673.9443564 1.60844192-.0985592 3.71896967-1.9324413 3.9446364-.6441471.07930056-1.023657-.05664326-.971092-.80524054.0337594-.48531942.006344-.97494373.006344-1.46275546h-.0033986c0-.33759381-.0330796-.67926594.0077035-1.01187514zm-.0077035 6.80602714c.0036252-1.5212113.0536978-1.5796671 1.4126828-1.6564754 1.2162441-.0691047 1.8719464.4619824 1.9952021 1.6152391.1887354 1.7693088-.7094001 2.8298971-2.5097494 3.0276954-.6040437.0663859-.9420906-.0469006-.8999481-.7359092.0294545-.4859991.0056644-.9751703.0056644-1.4627555h-.0040783c0-.2625981-.0004532-.5251962.0002265-.7877944zm1.4965149 4.5634074c1.2912397-.1957591 2.6087618-.4497475 3.8127709-.9321215 1.5114686-.6054031 2.3744853-1.8248191 2.3076463-3.5451881-.0632139-1.6243021-.9685997-2.551892-2.4954754-2.93321444-.4615292-.11532567-.4991403-.27619252-.1044501-.54037667.1565619-.10467673.3151631-.20731432.4649278-.32128055 1.2851222-.98015491 1.8918848-2.25077645 1.5078435-3.8589918-.3779238-1.58215945-1.5832923-2.20455556-3.0666659-2.4234251-.3711266-.05505725-.7544882-.10694247-1.1249351-.07431595-2.5145074.22068212-5.0265226.47240476-7.5410301.69580576-.6078954.05392438-.7320574.40307342-.7060015.92192565.0226573.45088033-.0677453.91603475.6430142.92917599.7966308.0142741 1.12131.54830672 1.1242554 1.28059075.0108755 2.71479801.0117818 5.42982256.0004531 8.14462066-.0033985.7601525-.3514147 1.2540817-1.1330917 1.484733-.2594261.0763551-.5641668.4615293-.6031374.7399875-.1393424.9921633-.0020391 1.0657995 1.9632553.9715451 1.2808173-.1341312 3.1269344-.2630512 4.9506207-.5394703zm-29.7920874-.137983c.17196893-.2433394.33532808-.4930229.5174928-.7282057.72095537-.9318949 2.02012511-1.1974385 2.92460463-.6035906.80659998.5292746.96814655 1.5314071.49121033 2.6368569-.14840534.3437113-.14002214.7547148-.20346258 1.1349043.58274582-.1361704 1.31049839-.108755 1.70450888-.4579041.34212527-.3031547.41485521-1.0313604.42029297-1.5735496.03534539-3.4314485.0260559-6.8638033.01495382-10.2954784-.00430489-1.26948867-.35571966-1.7169704-1.65013136-1.802615-.82381953-.05437753-.8618838-.4545055-.88136908-1.08709739-.02356359-.76830914.39355735-.84330481.99646818-.83718734 2.48867813.02424332 4.97780941.03647826 7.46671411.02560276.6060829-.00271888.8956432.17672696.8970026.83310902.001586.64278768-.162906.94209065-.8831816.97290458-1.3349683.05686983-1.5964336.38268184-1.6009651 1.76115214-.009516 2.90375992-.0867774 5.81091843.0192588 8.71082663.1146459 3.1287469-.98445985 5.3459906-4.11592566 6.2948784h-2.71887633c-1.4439499-.5174928-2.66631139-1.3118578-3.39859541-2.7188763z" fill="#252d5f"/></svg>