<svg height="25" viewBox="0 0 112 25" width="112" xmlns="http://www.w3.org/2000/svg"><g fill="none" fill-rule="evenodd"><path d="m38.7600872 17.4015041c.4655477-1.0421798 1.4411989-1.7517166 2.7275204-1.7517166 1.2863216 0 2.2398474.5986049 2.6390191 1.7517166zm8.426703 1.3305722c0-3.1933733-2.328654-5.7434332-5.7213079-5.7434332-3.1933733 0-5.7657112 2.5721852-5.7657112 5.7657111 0 3.1932207 2.3951826 5.7655586 5.8545177 5.7655586 2.3957929 0 4.1189755-1.1557057 5.0885232-2.8123597l-2.4096785-1.4369264c-.5111716.9808392-1.4924686 1.5882943-2.6567193 1.5882943-1.5966867 0-2.5944632-.7984959-2.9493842-2.0181363h8.5597602zm61.8499398 0c0-1.6409373-1.197515-2.9715095-2.838299-2.9715095-1.685341 0-2.971663 1.2640436-2.971663 2.9715095s1.286322 2.9937875 2.971663 2.9937875c1.640784 0 2.838299-1.3526976 2.838299-2.9937875zm-8.781471.0222779c0-3.9248828 2.882855-5.7657111 5.388665-5.7657111 1.441351 0 2.572338.5322288 3.304152 1.3082942v-6.18685556h3.038038v16.18796726h-3.038038v-1.241613c-.731814.8648719-1.907051 1.4634768-3.348403 1.4634768-2.350779 0-5.344414-1.8628011-5.344414-5.7655586zm-2.2317604-7.2314768c1.0037276 0 1.8173297-.8136022 1.8173297-1.81732972s-.8136021-1.8173297-1.8173297-1.8173297c-1.0035749 0-1.8170245.81360218-1.8170245 1.8173297s.8134496 1.81732972 1.8170245 1.81732972zm-1.5188664 1.6876294h3.0378855v11.0875422h-3.0378855v-8.138158l-1.102605-.0001526zm-8.0931445 0h3.0159128v1.8183978c.5543543-1.1531117 1.5522834-1.8183978 3.0601635-1.8183978h1.2197929l-1.1015367 2.9492316h-.8279455c-1.6186594 0-2.3283488.8427466-2.3283488 2.9049809v5.2333297h-3.0380382zm-17.0909863 2.9936349c0-4.6125995 3.481613-8.31592372 8.2713678-8.31592372 2.3959455 0 4.4107248.8627357 5.8694714 2.23755862.5937221.5593896 1.0951281 1.2037711 1.4927738 1.9093406l-2.7052425 1.6409373c-.9979291-1.8406758-2.5280872-2.7942016-4.6347248-2.7942016-2.9493842 0-5.2334822 2.4173079-5.2334822 5.3222888 0 2.9715095 2.2398474 5.3219836 5.3442615 5.3219836 2.3507793 0 4.0136894-1.3304196 4.5903216-3.3928065h-5.0781472v-2.9492316h8.4044251v1.2417657c0 4.346485-3.1044142 8.0940599-7.9165995 8.0940599-5.0558692 0-8.404425-3.8362289-8.404425-8.3157711zm-3.6621254 2.5279346c0-1.6409373-1.1973624-2.9715095-2.8382997-2.9715095-1.6853406 0-2.9716621 1.2640436-2.9716621 2.9715095s1.2863215 2.9937875 2.9716621 2.9937875c1.6409373 0 2.8382997-1.3526976 2.8382997-2.9937875zm-8.7814714.0222779c0-3.9248828 2.882703-5.7657111 5.3886649-5.7657111 1.4413515 0 2.5723379.5322288 3.3041526 1.3082942v-6.18685556h3.0380381v16.18796726h-3.0380381v-1.241613c-.7318147.8648719-1.9070518 1.4634768-3.3484033 1.4634768-2.3506267 0-5.3444142-1.8628011-5.3444142-5.7655586zm-10.9799673-5.5438474h3.0160654v1.2417657c.7095368-.9092752 1.7962725-1.4636294 3.0601635-1.4636294 2.6165886 0 4.1911499 1.6853406 4.1911499 4.5459182v6.7634877h-3.0824414v-6.364316c0-1.4857548-.6874115-2.3506267-2.0399564-2.3506267-1.1532643 0-2.1067902.7983433-2.1067902 2.6609918v6.0539509h-3.0381908zm-24.8052534 8.4044251 2.8164796-2.2177221c.7981907 1.3751281 2.0622343 2.1733188 3.5034332 2.1733188 1.5747139 0 2.4174605-1.0199019 2.4174605-2.1289155 0-1.3304196-1.6191171-1.7515641-3.3487084-2.2840981-2.1730137-.6651335-4.5903216-1.5077275-4.5903216-4.6124469 0-2.5944632 2.2621254-4.65685012 5.3886649-4.65685012 2.6390191 0 4.1468992.99792916 5.455346 2.35077932l-2.5503651 1.9291771c-.6651335-.9977766-1.6186594-1.5301581-2.8828556-1.5301581-1.4413515 0-2.2172643.776218-2.2172643 1.7962725 0 1.2417657 1.5521308 1.6633679 3.2817221 2.2396949 2.1955967.7095367 4.6791281 1.6853406 4.6791281 4.7900599 0 2.5721853-2.0402616 5.0558692-5.6105286 5.0558692-2.9269537 0-4.8784088-1.2416131-6.3421908-2.9049809z" fill="#212f38"/><path d="m6.507 24.298h6.475v-6.475h-6.475z" fill="#9dd6e3"/><path d="m.033 17.823h6.474v-6.475h-6.474z" fill="#9dd6e3"/><path d="m.033 24.298h6.475v-6.475h-6.475z" fill="#3f72ab"/><path d="m12.982 17.823h6.475v-6.475h-6.475z" fill="#00a9d1"/><path d="m6.507 11.348h6.475v-6.474h-6.475z" fill="#00a9d1"/><path d="m6.507 17.823h6.475v-6.475h-6.475z" fill="#2191c4"/><path d="m12.982 11.348h6.475v-6.474h-6.475z" fill="#3f72ab"/><g fill="#212f38"><path d="m26.146.962v3.775h-.873v-3.775h-1.346v-.755h3.569l-.001.755z"/><path d="m33.861 4.737h-.827l-1.004-3.296-1.005 3.296h-.82l-1.266-4.552.916.013.842 3.206.945-3.197h.874l.945 3.197.827-3.197h.873z"/><path d="m36.884 4.737h.873v-4.53h-.873z"/><path d="m39.78 4.737v-4.53h.873v3.761h1.51l.007.769z"/><path d="m43.983 4.737h.873v-4.53h-.873z"/><path d="m48.8283379.84366213c-.7746921 0-1.2406976.63675204-1.2406976 1.62811989 0 .99136784.4660055 1.6279673 1.2406976 1.6279673.7812534 0 1.2474114-.63659946 1.2474114-1.6279673 0-.99136785-.4725667-1.62811989-1.2474114-1.62811989m-.0064087 3.97844141c-1.2869319 0-2.1203706-.94559128-2.1203706-2.34406539 0-1.40488284.84-2.35657766 2.1333406-2.35657766 1.3000545 0 2.1203706.94498093 2.1203706 2.34360763 0 1.39816894-.8334387 2.35703542-2.1333406 2.35703542"/></g></g></svg>