<svg height="20" viewBox="0 0 111 20" width="111" xmlns="http://www.w3.org/2000/svg"><path d="m93.7012026 2.39766666c.5826859.03893343.7494742.19541587.8210573.80936609.0214749.1781953.0279175.35863677.0279175.53832952.0014315 4.15239995.0014315 8.30554853-.0014317 12.45869723 0 .253816-.0200432.5091294-.0472449.761448-.0529714.4866678-.2140332.6506375-.6714487.7225145-.2226233.0344411-.4445306.0801131-.6485423.1175491-.1152487.5158679-.0944895 1.354434.0365073 1.6808759.0894789.0119795.1875476.0366873.2856163.0366873 1.6056074.0022461 3.2104987.0029949 4.8161061-.0007488.1224065 0 .2448143-.0344411.40516-.0591488.0157483-.5967298.0472449-1.1560233-.0200439-1.7362813-.4302138-.0598974-.8232041-.114554-1.1961518-.1662158-.2004322-.2425851-.1417346-.5083807-.1417346-.7562069-.0035786-5.2170795-.0021472-10.43490759-.0042943-15.65198704 0-.20290305-.0229067-.40580612-.0343608-.59298607-.4788901-.11754899-3.9055694-.10107717-4.2606213.01796928v1.73553246c.2211915.03069751.4266349.07037965.6335098.08460533zm-91.05217819 6.70703188c.00357908 2.20497966-.00143169 4.41070816.00501077 6.61568796.00143169.6581247.01073752 1.3162493.17967341 1.9623945.27487886 1.0489565.91268362 1.7175632 1.90267689 2.0028254.39728572.1145541.81318311.1669645 1.22478556.2141339 1.1524867.1302773 2.25271788-.09359 3.30713587-.5817552.1123853-.0516618.20830661-.1407594.33500852-.2276109-.1796734-.6745965-.35004097-1.3177468-.52828269-1.9856049-.16034603.0546566-.2698681.083108-.37294757.1287798-.53902021.2380929-1.10094702.3107188-1.68291705.2770264-.66930121-.0389335-1.14246502-.3968216-1.32142258-1.0774077-.09091054-.3429137-.15175604-.7060428-.15390357-1.060936-.0143166-2.175031-.00858999-4.350062-.00572661-6.52509297.00071584-.15723106.03364398-.31446226.05726642-.51811405h3.16754889c.26915226-.71877093.52756699-1.40684443.81103571-2.16305145-.23192905-.01197952-.3844008-.0262052-.53687268-.02695392-.96064422-.00224616-1.92128843.00074872-2.88264849-.00299488-.19613754-.00074872-.40444416.03069752-.59485495-.16771323-.0071583-.13402084-.02219075-.29649303-.02290659-.45896522-.00214753-.65962213.00286337-1.31999298-.00071585-1.97961511-.00143168-.15723116-.02791736-.31371358-.04294981-.47468834h-1.47675783c-.2720155.74422746-.50394441 1.48695748-.97281329 2.10914363-.49105963.6513862-1.16036084.99954091-1.88764445 1.20394141-.13242853.66710931-.22763399 1.27881342-.2562672 1.95715344h1.69437028c.02290646.30847259.05440305.54431932.05511889.77941743zm43.82098139-2.85411988c-1.0945045-.41329332-2.2276638-.51362177-3.3851614-.45971394-2.5003951.11680028-4.4410109 1.67713233-5.2269926 4.15090242-.3700842 1.16575676-.3507568 2.36295976-.3765266 3.54968056-.0193274.9388945.1624934 1.8762918.4753113 2.7740068.6012974 1.7250503 1.7151292 2.8915557 3.4109312 3.393198.914831.2710366 1.8532845.3376726 2.8089179.2276109 1.2111848-.1392619 2.3121318-.5570476 3.3185891-1.2630904.1159645-.0816104.2226232-.1774465.3743793-.2994878-.3593468-.6701042-.7058086-1.3155007-1.0708822-1.9953382-.1746625.1100617-.3092385.189426-.4373722.2770262-.6700171.4604628-1.3944373.7674378-2.1940198.8595304-1.3572141.1572312-2.7273132-.4454884-3.2699127-1.9736254-.6055923-1.7055836-.6191931-3.4471059-.0851838-5.1601767.6177616-1.9811125 2.2426964-2.44457014 3.8991276-2.06946152.3808216.08685149.5454625.32943666.5633584.74347881.0114532.25456466.0035791.50987809.0042949.76519151v.8932228c.7802551-.0935901 1.505391-.0486669 2.2262322-.2306057v-3.61781402c-.3027962-.30098536-.6743121-.42826772-1.0350906-.56453472zm57.0065742 5.20210504c.133145-.7554583.356484-1.47722409.778824-2.11812825.627783-.95087412 1.490359-1.40983933 2.597032-1.35218788.906241.04642059 1.488211.67160158 1.484633 1.62322447-.002865.79364296-.325703 1.40534706-1.008605 1.79543006-.566222.3234469-1.183984.4522266-1.810336.5023909-.583401.0464206-1.171813.0194667-1.758079.0179693-.080888 0-.161061-.0404309-.286332-.074872 0-.1355182-.019327-.2687904.002863-.3938266zm5.987205 5.3690696c-.881903.5098782-1.822504.7854071-2.835403.7719301-1.62923-.0217129-2.761673-1.0040332-3.087376-2.6811656-.050825-.2598057-.14603-.5188628-.027918-.7996327.054403-.0142257.108091-.0396822.162493-.0419283.743748-.0232104 1.488928-.0149744 2.230528-.0703797.974244-.0726257 1.932026-.2553135 2.831108-.6850786.824637-.3938266 1.476043-.9853152 1.843264-1.8628148.31568-.7539609.421624-1.55958329.351472-2.37643658-.146745-1.70782981-1.128149-2.85861212-2.748073-3.16109492-.614182-.11455412-1.255565-.14075932-1.880485-.11230796-2.181135.10032844-3.841146 1.15976688-4.859772 3.1745719-1.218343 2.41237506-1.253419 4.95727366-.435941 7.49917726.556916 1.7295427 1.772396 2.7987146 3.476787 3.22249.881903.2193749 1.773112.291252 2.68508.192421 1.12958-.1220413 2.191156-.4394985 3.186877-1.0010383.145313-.0816105.273447-.195416.425202-.3054777-.277026-.6873248-.536872-1.33347-.824636-2.0484974-.197568.1138054-.34503.1999082-.493207.2852623zm-95.8725791-5.2507719c.1195436-.8879816.3944225-1.71456823.9277159-2.428847.6614272-.88723286 1.5447618-1.25710043 2.6034747-1.14778734.8103199.08385659 1.3013795.68208369 1.3121169 1.54460894.0136007 1.0130179-.395854 1.6823733-1.3207067 2.0148049-.4946388.1774466-1.0214899.2927494-1.5426143.3496521-.5519051.0606464-1.1138319.0232104-1.6714637.0202154-.0937738-.0007487-.1868317-.0449232-.2920587-.071877-.0071583-.1085644-.0272016-.1969134-.0164641-.28077zm3.1081349 2.3464878c.8468272-.0823592 1.6671688-.306975 2.4187905-.7367402.9678026-.5540526 1.6371039-1.3701572 1.8210722-2.5306729.0858997-.5420732.1109538-1.10511042.0830363-1.65392203-.0665721-1.29378781-.6778912-2.23268236-1.8096188-2.77999651-.6757438-.32793927-1.3965849-.42078052-2.1346059-.4387498-1.2620087-.03069751-2.4495712.22311849-3.529759.93589972-1.1360227.75021728-1.8840653 1.82238399-2.3672508 3.11317689-.3214077.85803283-.476743 1.75050683-.5375885 2.67143223-.0866155 1.316998.01718 2.6070423.4352248 3.8544094.5962866 1.7759633 1.7766907 2.9050327 3.5297591 3.3497723.8819029.2238672 1.775259.2792724 2.6865109.1879286 1.1310119-.1138054 2.1904407-.4365036 3.189024-.9935512.1460292-.0808616.2784579-.1886773.4237713-.2882571-.1467451-.3773548-.2641413-.715776-.4094547-1.0407204-.1474612-.3301854-.2061593-.7105351-.4703006-.999541-.1295653.0771182-.2405189.1415081-.3507568.2081441-.9291477.5555502-1.9248677.8587817-2.998613.812361-1.1660875-.0501643-2.1059726-.5308423-2.6750578-1.6516757-.2455296-.4836731-.3557676-1.0107718-.430214-1.5461065-.0114532-.0816104.0221908-.1699593.0329283-.2425852 1.0694505-.0778669 2.083066-.1325234 3.0931025-.2306057zm56.2771439-4.91983761c.0021475 1.96239451-.0078742 3.92478911.0035792 5.88718361.0143166 2.4003956-2.2455596 3.246449-3.8211019 2.4969804-.6213408-.2949956-1.0171948-.8370686-1.2176273-1.4996856-.1632094-.5383296-.2985013-1.1006181-.3393036-1.6606606-.0837521-1.151531-.0579823-2.3053082.2405189-3.4321314.1460294-.5525552.3493253-1.07665901.6743121-1.54386019.5977183-.85953034 1.442398-1.23014667 2.416643-1.2189158.578391.00673844 1.1553501.17594913 1.7315935.28002117.0794572.01422564.1510402.07636939.2777421.14450295.0128849.19391844.0329283.37061633.033644.54656546zm2.5340392-2.46628301c-1.834673-.61769382-3.7008425-.92990997-5.6314368-.64914005-2.471046.35938549-4.2513159 2.0110614-4.917038 4.52451367-.3421669 1.2922904-.3743793 2.6032986-.3242712 3.9247891.0300649.8116122.1596302 1.6089988.4273508 2.3756878.4824696 1.3813881 1.311401 2.4056367 2.6800685 2.899043.720841.2590571 1.4581463.2882571 2.2061888.2755289 1.197584-.0217129 2.1997465-.4866679 2.998613-1.4248138.0909104-.1070669.1947059-.2021542.3371561-.3489033.2333607.464955.0429498.9576125.2698679 1.3409571.4624264.131026 3.2312579.1040721 3.568414-.0486668.0157483-.5151192.0300649-1.0452129-.0100217-1.584291-.2548355-.0396821-.4524047-.06439-.6478264-.1010773-.4903437-.0935899-.619909-.2560621-.632078-.7884018-.0035793-.149744-.0014317-.299488-.0014317-.4499807 0-3.0742434 0-6.1492355.0007158-9.22422762v-.55405268c-.1467452-.07636943-.2312132-.13551829-.3242711-.16696452zm-44.1073135 2.43408806c.0035791 2.00656896 0 4.01313796.0021474 6.01970706.0021475 1.6838708-1.2870627 2.7837402-2.9155766 2.647473-1.2133323-.1018259-1.9184251-.8834893-2.2126313-2.0574819-.4531206-1.8089069-.4015808-3.617814.1932742-5.389285.2462455-.73524281.6664379-1.35368537 1.3378867-1.75200422.4209081-.25007251.8761762-.37585738 1.3500559-.40356004.7344418-.04267692 1.4481246.0898464 2.1918722.37286248.0207591.21113898.0529715.38633949.0529715.56228862zm3.7888895 8.79670866c-.8110357-.0846054-.919126-.2088929-.9205576-1.0624334v-.269539c0-3.0577717.0007157-6.1155433-.0007158-9.17331483-.0007159-.19092353-.0186117-.38184707-.0264859-.54731419-.0694354-.0531591-.1016477-.08460533-.1388709-.10407205-.0637089-.03294366-.1295653-.06364117-.1975693-.08610277-1.8346729-.6169451-3.7037057-.93515101-5.6285734-.62817589-2.5411973.4050574-4.158258 1.92870215-4.8719407 4.50280073-.3579151 1.2937878-.425919 2.6175244-.3407353 3.9569841.0565506.8879817.1947059 1.7557479.5125346 2.5838319.5282827 1.3731521 1.4388188 2.3180365 2.8175079 2.7448068.6714487.2081441 1.3557825.2201236 2.0436954.1991595 1.1775408-.0351899 2.1668183-.502391 2.9513682-1.4293062.0901946-.1063182.19399-.1999081.3758109-.3840932.0680038.5405757.122407.9695922.1839683 1.4547626.6320782.0014973 1.2161957.0149744 1.7995973.0022461.5919917-.0119795 1.1897099.0598976 1.7881441-.0471693v-1.6584144c-.1517561-.023959-.2491091-.0441744-.3471778-.0546565zm47.6277669-1.3274801c-.0028634-1.9938408.0207591-3.9876816-.0093058-5.9807737-.0207591-1.37914176.8360897-2.2132156 2.0501378-2.37119556.5153978-.06663604 1.0265007-.01347688 1.5161285.20664669.8375215.37660601 1.2877787 1.09313093 1.5032436 1.96389197.4259189 1.7145683.4001491 3.4373725-.0651406 5.1437049-.0737305.2710366-.1947058.5323399-.3206919.7824122-.5182611 1.0332334-1.4495563 1.5595834-2.6865111 1.4487727-.3972857-.0351898-.7931398-.1227899-1.180404-.2246158-.2576989-.0673848-.4996495-.2029032-.7673701-.3159598-.0157483-.2418365-.0393707-.4477345-.0400864-.6528836zm-2.513996 2.5561292c.2519723.1063182.5039446.219375.7645068.2979905 1.6070388.4866679 3.2369844.7689353 4.9191855.5802579.8096041-.0905951 1.5719633-.3256931 2.2749086-.7554583 1.0594288-.6468939 1.7573633-1.6127425 2.2076205-2.7874837.3937067-1.0264949.5397361-2.1024051.6299306-3.1992797.1030797-1.2563518.0150325-2.4857496-.2970694-3.69568081-.295638-1.14554132-.8668705-2.10540004-1.7967341-2.82716588-1.382984-1.07291546-4.1009916-1.18372598-5.6600698.13177467-.1267019.10706698-.261994.20440044-.4717321.3668727-.02577-.29349816-.0551191-.47992939-.0558349-.66561189-.0035791-1.78494796-.0014316-3.56989593-.0035791-5.35484389-.0007158-.17520042-.0193274-.34965214-.0322124-.57351935-.7330101-.05091295-1.4316605-.03144623-2.1288792-.02171287-.7072403.01048207-1.4202073-.06963094-2.1274475.05166165v1.79093773c.2512564.02770264.4745955.05166166.6972187.07786686.4259189.04941551.6213406.22536465.6907761.66261701.0329283.20589793.0300649.41853436.0307807.62817589.0014317 4.81426819.0007159 9.62928518.0007159 14.44355328v.6431503c.1589143.0928413.2534039.1617235.3579151.2058979zm-30.8594428-16.66799971v-1.75350174c.3478936-.10407205 3.6936842-.12728235 4.2348518-.02845136.0136009.15573372.0422342.32719055.0422342.49864739.0028632 2.09941026.0007158 4.19882054.0028632 6.29823077 0 .16921069.0200432.33917014.0365073.5982271.1352919-.12428749.2097383-.16696441.2491089-.23285183.8425323-1.38588029 2.0830662-1.94891757 3.610648-1.92570726.6048765.00823592 1.2011631.05989758 1.7731115.29050328.8038774.32419566 1.3786891.89172531 1.7244351 1.71831195.3156812.75695568.4230557 1.55658842.4273507 2.36894931.0121692 2.2641286.004295 4.529006.0064424 6.7931346 0 .1909235.0186117.3818471.0322124.6266785.4144657.0539078.8045933.1048207 1.2419656.1617234.0379389.5750169.0257698 1.1343106.0071583 1.675635-.3521885.1347694-4.9413764.1639695-5.4939973.0381846-.0730148-.5218577-.0357916-1.0616846-.0164642-1.632209.1882634-.0239592.3271345-.0419283.4660055-.0584003.6378048-.0778667.8239206-.2852622.8260682-.9553664.004295-1.3649161.0021475-2.7290836.0014317-4.0939998 0-.7195197.0186115-1.4405369-.0093059-2.158559-.0143166-.3698676-.071583-.74946865-.1803892-1.10061815-.1846842-.59672972-.5977182-.96734592-1.1904258-1.11634115-1.6557153-.41553954-3.1503689.6057143-3.432406 2.3584673-.0443815.2792724-.0701514.5652834-.0715831.8490482-.0064424 1.7991736-.0042949 3.5983472-.0014317 5.3982696 0 .1909235.0229066.3818471.0386549.6289247.4015808.0494155.7788233.095836 1.1489076.141508.1202595.33917.1338603 1.2997775.0286333 1.7280453-.3364403.1138054-4.9785996.1257849-5.4352993 0-.0687197-.5121244-.0307807-1.0422181-.0229066-1.6217271.2304974-.0464206.434509-.0973336.6420997-.1272824.5289987-.0763694.7322944-.296493.7394527-.8542893.00859-.6895709.0028634-1.3791418.0028634-2.0694614v-11.11175033c0-.10482077.0007158-.20964153 0-.3144623-.0057266-.71802228-.1789576-.90520222-.8539855-.94338693-.1811051-.01048208-.3607785-.0456719-.5748118-.07412325z" fill="#ff7f45"/></svg>