<svg width="48" height="48" viewBox="0 0 48 48" xmlns="http://www.w3.org/2000/svg"><title>icon_ruby</title><path d="M24 46c12.15 0 22-9.85 22-22S36.15 2 24 2 2 11.85 2 24s9.85 22 22 22zm0 2C10.745 48 0 37.255 0 24S10.745 0 24 0s24 10.745 24 24-10.745 24-24 24zm-6.235-18.035c4.663.639 9.225 1.244 13.905 1.884-1.594-2.624-3.137-5.181-4.697-7.755-.017 0-9.208 5.87-9.208 5.87zm15.21-14.534c-.407.606-.814 1.228-1.238 1.834l-4.222 6.308c-.085.117-.186.202-.068.387a879.303 879.303 0 0 1 4.053 6.694c.22.354.424.707.712 1.043l.814-16.249-.05-.017zm-18.55 6.947c.068.068.22.101.288.05 1.306-.638 2.611-1.26 3.883-1.95.424-.219.73-.623 1.102-.96a622.645 622.645 0 0 0 3.561-3.246c.068-.067.153-.134.204-.218.424-.824.847-1.649 1.271-2.506-.508-.186-1-.387-1.492-.556-.068-.016-.17.017-.237.068-1.153.639-2.306 1.244-3.425 1.934-.56.353-1 .858-1.493 1.295-.797.724-1.577 1.43-2.357 2.17-.203.202-.39.42-.56.656-.525.774-1.05 1.548-1.593 2.355.271.337.543.64.848.908zm4.765-1.06a1372.72 1372.72 0 0 1-1.967 8.21c3.12-2.002 6.172-3.954 9.207-5.888a717.48 717.48 0 0 1-7.24-2.321zm12.988-5.853c-2.645.437-5.222.858-7.817 1.295.882 2.153 1.764 4.24 2.662 6.409 1.713-2.59 3.409-5.113 5.155-7.704zm-12.887 5.299c2.374.757 4.714 1.514 7.105 2.287-.882-2.153-1.746-4.222-2.628-6.341-1.492 1.362-2.968 2.691-4.477 4.054zM14.51 23.96c-.848 2.001-1.662 3.936-2.493 5.887 1.594-.05 3.137-.084 4.73-.135-.728-1.9-1.474-3.784-2.237-5.752zm2.306 4.39l.05-.017c.577-2.338 1.154-4.676 1.73-7.115a274.078 274.078 0 0 1-3.798 1.951c.661 1.699 1.34 3.448 2.018 5.18zm14.413-13.272c-.763-.202-1.51-.403-2.272-.589l-3.256-.857c-.136-.034-.238-.068-.322.1-.39.774-.78 1.548-1.17 2.339-.017.016-.017.05-.017.117 2.357-.353 4.697-.706 7.037-1.06-.017 0 0-.05 0-.05zm-4.392-1.766l6.155 1.699c-.356-.992-.678-1.918-1.017-2.876l-5.138 1.127v.05zM17.34 30.419c-.763-.084-1.543 0-2.323 0l-1.899.05a.27.27 0 0 0-.203.084c5.256.488 10.513.96 15.77 1.447l.016-.067c-1.679-.236-3.374-.454-5.053-.69-2.102-.27-4.205-.589-6.308-.824zm-5.205-2.355c.678-1.564 1.356-3.112 2.034-4.676.068-.152.068-.27-.067-.387-.289-.27-.543-.555-.865-.875-.424 2.052-.831 4.07-1.238 6.072l.05.017c.018-.05.052-.1.086-.151zM25.48 12.892c1.137-.286 2.307-.522 3.46-.774.067-.017.152-.034.22-.068l-.017-.05c-1.628.219-3.239.437-4.951.656.475.219.83.353 1.288.236z" fill="#D80000" fill-rule="nonzero"/></svg>