<svg height="60" viewBox="0 0 60 60" width="60" xmlns="http://www.w3.org/2000/svg"><g fill="#ef4a25"><path d="m52 0v3a1 1 0 1 0 0 2v3h3a1 1 0 1 0 2 0h3v-8zm6 6h-4v-4h4zm-53 16a1 1 0 1 0 -2 0v1a1 1 0 1 0 2 0zm-1 24a1 1 0 0 0 -1 1v1a1 1 0 1 0 2 0v-1a1 1 0 0 0 -1-1zm1-34a1 1 0 1 0 -2 0v1a1 1 0 1 0 2 0zm0 15a1 1 0 1 0 -2 0v1a1 1 0 1 0 2 0zm-1-18a1 1 0 0 0 1-1h3v-3a1 1 0 1 0 0-2v-3h-8v8h3a1 1 0 0 0 1 1zm-2-3v-4h4v4zm3 36a1 1 0 1 0 -2 0v1a1 1 0 1 0 2 0zm0-10a1 1 0 1 0 -2 0v1a1 1 0 1 0 2 0zm0 5a1 1 0 1 0 -2 0v1a1 1 0 1 0 2 0zm0-20a1 1 0 1 0 -2 0v1a1 1 0 1 0 2 0zm17-12h1a1 1 0 1 0 0-2h-1a1 1 0 1 0 0 2zm-10 0h1a1 1 0 1 0 0-2h-1a1 1 0 1 0 0 2zm5 0h1a1 1 0 1 0 0-2h-1a1 1 0 1 0 0 2zm10 0h1a1 1 0 1 0 0-2h-1a1 1 0 1 0 0 2zm5 0h1a1 1 0 1 0 0-2h-1a1 1 0 1 0 0 2zm15 0h1a1 1 0 1 0 0-2h-1a1 1 0 1 0 0 2zm-10 0h1a1 1 0 1 0 0-2h-1a1 1 0 1 0 0 2zm5 0h1a1 1 0 1 0 0-2h-1a1 1 0 1 0 0 2zm14 9a1 1 0 0 0 1-1v-1a1 1 0 1 0 -2 0v1a1 1 0 0 0 1 1zm-1 9a1 1 0 1 0 2 0v-1a1 1 0 1 0 -2 0z"/><path d="m56 51a1 1 0 0 0 -1 1h-1.318l-8.682-22.189v-6.811h-8v3h-14v-3h-8v6.811l-8.683 22.189h-1.317a1 1 0 1 0 -2 0h-3v8h8v-3h44v3h8v-8h-3a1 1 0 0 0 -1-1zm-17-26h4v4h-4zm-22 0h4v4h-4zm-11 33h-4v-4h4zm2-3v-1.812l8.683-22.188h6.317v-3h14v3h6.317l8.683 22.188v1.812zm50-1v4h-4v-4zm-3-36a1 1 0 1 0 2 0v-1a1 1 0 1 0 -2 0zm0 10a1 1 0 1 0 2 0v-1a1 1 0 1 0 -2 0zm0 10a1 1 0 1 0 2 0v-1a1 1 0 1 0 -2 0z"/><path d="m55 48a1 1 0 1 0 2 0v-1a1 1 0 1 0 -2 0zm0-5a1 1 0 1 0 2 0v-1a1 1 0 1 0 -2 0zm0-10a1 1 0 1 0 2 0v-1a1 1 0 1 0 -2 0z"/></g></svg>