<svg width="48" height="48" viewBox="0 0 48 48" xmlns="http://www.w3.org/2000/svg"><title>icon_js</title><path d="M24 46c12.15 0 22-9.85 22-22S36.15 2 24 2 2 11.85 2 24s9.85 22 22 22zm0 2C10.745 48 0 37.255 0 24S10.745 0 24 0s24 10.745 24 24-10.745 24-24 24zm11.733-31.798l-10.181-5.924a2.17 2.17 0 0 0-2.124 0L13.13 16.202c-.67.393-1.131 1.11-1.131 1.874v11.825c0 .763.485 1.48 1.154 1.874l2.725 1.55c1.292.649 1.754.649 2.354.649 1.917 0 3.025-1.157 3.025-3.194V19.094c0-.162-.093-.416-.254-.416H19.71c-.162 0-.531.254-.531.416V30.78c0 .903-.808 1.805-2.332 1.041l-2.816-1.62a.321.321 0 0 1-.162-.277V18.099c0-.116.139-.231.23-.278l10.251-5.923a.394.394 0 0 1 .323 0L34.81 17.82c.093.07.07.162.07.278v11.825c0 .116.046.231-.047.278l-10.18 5.924c-.093.046-.185.046-.3 0l-2.61-1.55a.247.247 0 0 0-.253-.024c-.716.417-.855.463-1.547.694-.162.07-.416.162.092.44l3.417 2.036c.323.185.692.278 1.062.278.37 0 .739-.093 1.085-.278l10.135-5.924c.67-.393.97-1.11.97-1.874V18.099c0-.787-.324-1.504-.97-1.897zm-8.057 11.824c-2.701 0-3.302-.74-3.51-2.105-.023-.14-.138-.324-.3-.324H22.55c-.161 0-.3.208-.3.37 0 1.735.947 3.818 5.426 3.818 3.232 0 5.102-1.273 5.102-3.494 0-2.222-1.5-2.8-4.64-3.217-3.187-.416-3.51-.624-3.51-1.388 0-.625.277-1.435 2.632-1.435 2.101 0 2.886.463 3.186 1.875a.274.274 0 0 0 .277.231h1.34c.091 0 .16-.023.207-.093.046-.069.092-.138.07-.23-.209-2.454-1.825-3.588-5.103-3.588-2.909 0-4.663 1.227-4.663 3.31 0 2.244 1.731 2.869 4.525 3.146 3.347.324 3.601.81 3.601 1.481.046 1.157-.877 1.643-3.024 1.643z" fill="#7FD100" fill-rule="nonzero"/></svg>