<svg height="60" viewBox="0 0 60 60" width="60" xmlns="http://www.w3.org/2000/svg"><g fill="#ef4a25"><path d="m50.975 20.694c-.527-9-7.946-16.194-16.891-16.194-5.43 0-10.688 2.663-13.946 7.008-.074-.039-.153-.065-.228-.102a8.621 8.621 0 0 0 -.605-.269 8.946 8.946 0 0 0 -.961-.317c-.116-.031-.231-.063-.349-.09a8.938 8.938 0 0 0 -.683-.124c-.102-.015-.202-.035-.305-.047a9.278 9.278 0 0 0 -1.007-.059c-4.962 0-9 4.037-9 9 0 .129.007.255.016.381-4.159 2.267-7.016 7.018-7.016 11.773 0 7.083 5.762 12.846 12.845 12.846h5.155a1 1 0 1 0 0-2h-5.155c-5.98 0-10.845-4.865-10.845-10.846 0-4.154 2.705-8.466 6.432-10.253l.568-.271v-.63c0-.123.008-.249.015-.375l.009-.175-.012-.188c-.005-.087-.012-.174-.012-.262 0-3.859 3.14-7 7-7 .309 0 .614.027.917.067.078.01.155.023.232.036.268.044.532.102.792.177.034.01.069.016.102.026a6.86 6.86 0 0 1 1.043.421 6.995 6.995 0 0 1 3.914 6.273 1 1 0 1 0 2 0 8.98 8.98 0 0 0 -3.2-6.871c2.866-3.75 7.588-6.129 12.284-6.129 7.744 0 14.178 6.135 14.848 13.887-1.022-.072-2.553-.109-4.083.125a1 1 0 1 0 .301 1.977c2.224-.336 4.543-.021 4.684-.002 4.656.885 8.166 5.174 8.166 9.985 0 5.529-4.499 10.028-10.028 10.028h-3.972a1 1 0 1 0 0 2h3.972c6.632 0 12.028-5.396 12.028-12.028 0-5.489-3.827-10.412-9.025-11.778z"/><path d="m31.708 30.794a1.001 1.001 0 0 0 -1.416 0l-7.999 7.999a.999.999 0 1 0 1.414 1.414l6.293-6.293v20.586a1 1 0 1 0 2 0v-20.586l6.293 6.293a.997.997 0 0 0 1.414 0 .999.999 0 0 0 0-1.414z"/></g></svg>